HIERARCHY
ROOT Hips
{
  OFFSET 40.9192 92.6879 18.85
  CHANNELS 6 Xposition Yposition Zposition Zrotation Xrotation Yrotation
  JOINT LeftUpLeg
  {
    OFFSET 8.64259 1.95398 -2.38835
    CHANNELS 3 Zrotation Xrotation Yrotation
    JOINT LeftLeg
    {
      OFFSET 43.7702 0 0
      CHANNELS 3 Zrotation Xrotation Yrotation
      JOINT LeftFoot
      {
        OFFSET 40.6238 0 0
        CHANNELS 3 Zrotation Xrotation Yrotation
        JOINT LeftToeBase
        {
          OFFSET 12.7242 0 0
          CHANNELS 3 Zrotation Xrotation Yrotation
          End Site
          {
            OFFSET 0 0 0
          }
        }
      }
    }
  }
  JOINT RightUpLeg
  {
    OFFSET -8.2249 1.95398 -2.59336
    CHANNELS 3 Zrotation Xrotation Yrotation
    JOINT RightLeg
    {
      OFFSET 43.5653 0 0
      CHANNELS 3 Zrotation Xrotation Yrotation
      JOINT RightFoot
      {
        OFFSET 40.6238 0 0
        CHANNELS 3 Zrotation Xrotation Yrotation
        JOINT RightToeBase
        {
          OFFSET 12.7242 0 0
          CHANNELS 3 Zrotation Xrotation Yrotation
          End Site
          {
            OFFSET 0 0 0
          }
        }
      }
    }
  }
  JOINT Spine
  {
    OFFSET 0.165834 0.87714 6.61349
    CHANNELS 3 Zrotation Xrotation Yrotation
    JOINT Spine1
    {
      OFFSET 7.38963 1.71661e-005 0
      CHANNELS 3 Zrotation Xrotation Yrotation
      JOINT Spine2
      {
        OFFSET 11.9445 1.14441e-005 0
        CHANNELS 3 Zrotation Xrotation Yrotation
        JOINT Spine3
        {
          OFFSET 14.7254 4.19617e-005 0
          CHANNELS 3 Zrotation Xrotation Yrotation
          JOINT Spine4
          {
            OFFSET 10.9679 0 0
            CHANNELS 3 Zrotation Xrotation Yrotation
            JOINT RightShoulder
            {
              OFFSET 2.46616 -1.6653 3.69651
              CHANNELS 3 Zrotation Xrotation Yrotation
              JOINT RightArm
              {
                OFFSET 13.0012 0 0
                CHANNELS 3 Zrotation Xrotation Yrotation
                JOINT RightForeArm
                {
                  OFFSET 28.7848 1.52588e-005 0
                  CHANNELS 3 Zrotation Xrotation Yrotation
                  JOINT RightHand
                  {
                    OFFSET 26.5688 1.52588e-005 0
                    CHANNELS 3 Zrotation Xrotation Yrotation
                    End Site
                    {
                      OFFSET 0 0 0
                    }
                  }
                }
              }
            }
            JOINT LeftShoulder
            {
              OFFSET 2.38034 -1.29275 -3.7523
              CHANNELS 3 Zrotation Xrotation Yrotation
              JOINT LeftArm
              {
                OFFSET 16.3182 6.10351e-005 0
                CHANNELS 3 Zrotation Xrotation Yrotation
                JOINT LeftForeArm
                {
                  OFFSET 27.0901 0 0
                  CHANNELS 3 Zrotation Xrotation Yrotation
                  JOINT LeftHand
                  {
                    OFFSET 24.5451 1.52588e-005 0
                    CHANNELS 3 Zrotation Xrotation Yrotation
                    End Site
                    {
                      OFFSET 0 0 0
                    }
                  }
                }
              }
            }
            JOINT Neck
            {
              OFFSET 5.0226 -0.0266342 0
              CHANNELS 3 Zrotation Xrotation Yrotation
              JOINT Head
              {
                OFFSET 6.69363 2.86102e-005 0
                CHANNELS 3 Zrotation Xrotation Yrotation
                End Site
                {
                  OFFSET 0 0 0
                }
              }
            }
          }
        }
      }
    }
  }
}
MOTION
Frames:	9
Frame Time:	0.0416667
36.0014 97.6266 -261.457 -97.5296 -83.6212 -97.3623 -171.38 3.69848 88.8475 -12.6355 14.9558 -4.0174 66.6752 6.95464 6.94524 25.8571 -2.68052 2.48869 174.555 2.28406 91.2787 -13.7107 -13.4658 -0.570398 68.569 -4.2379 -2.27968 27.0738 0.0591845 -1.82305 0.0726006 7.3489 -89.8774 12.1758 0.202385 0.222225 0.504861 0.211981 0.213101 -22.0302 0.126243 0.272786 -2.01756 0.126242 0.272771 93.8214 -47.7247 -95.3226 33.2418 -7.39908 5.09006 -9.85937 -26.7188 -41.226 -4.51086 -0.567093 0.332053 -94.8785 -48.0898 70.9154 -26.4594 12.6852 2.23357 4.8521 12.2839 -32.4882 9.44121 0.72248 3.47624 13.2885 1.61151 -1.57345 -5.02309 1.93068 3.56311 
36.1914 97.4904 -260.826 -96.0944 -84.3362 -96.0841 -171.455 3.75454 88.5171 -13.0819 15.9128 -4.10064 66.8961 7.85865 7.95641 26.6028 -2.2765 4.04419 174.693 2.70566 91.1931 -15.0329 -12.3045 -0.855445 69.3566 -4.47109 -2.35907 27.6611 0.0464593 -1.38961 0.0391552 7.32015 -89.9548 12.2336 0.0992671 0.079166 0.562705 0.10266 0.0747149 -21.9725 0.0708857 0.105339 -1.95981 0.0708828 0.105332 93.3092 -46.4939 -96.3594 33.6935 -6.96209 6.47843 -8.72371 -24.485 -41.792 -4.01438 -0.623799 2.83698 -95.7694 -49.0538 69.8814 -26.0639 12.8946 2.31174 4.20612 11.6781 -32.2799 10.7168 0.890717 4.16445 12.4407 1.90246 0.390007 -3.35876 1.80286 1.93021 
36.8275 97.1811 -259.87 -94.0321 -84.405 -93.1755 -171.845 4.7065 88.5254 -16.1136 14.6557 -3.30278 68.962 9.64088 8.01751 27.0442 -1.82673 3.49982 175.657 2.75631 91.9511 -16.1295 -11.2621 -1.44118 70.2364 -4.95173 -2.59274 29.2794 0.11509 -1.51755 0.10537 7.30842 -90.0313 12.2571 0.194632 -0.0843122 0.586121 0.190736 -0.0928035 -21.9491 0.21097 -0.0219178 -1.9365 0.210971 -0.0219267 93.548 -46.4976 -95.9749 34.0629 -6.29313 7.18545 -12.198 -24.2464 -46.0213 -1.83389 -0.622983 5.22828 -95.5759 -48.8649 70.1105 -26.482 12.9267 2.26128 4.1706 11.5699 -32.0976 10.2188 0.728752 3.04951 12.4802 1.71691 -0.398628 -3.16224 1.80169 2.1838 
37.182 96.5223 -258.72 -93.6785 -84.5186 -92.819 -172.275 5.59036 87.967 -19.7105 14.5714 -2.91056 70.9754 11.5711 8.53732 28.3222 -0.765401 3.63202 177.139 5.61437 92.583 -23.1057 -7.50804 -2.43336 71.9625 -5.88513 -2.98755 33.4681 0.275068 -0.428354 0.101166 7.34401 -90.0262 12.1857 0.188727 -0.073349 0.514798 0.18532 -0.0815897 -22.0205 0.202045 -0.0132377 -2.00781 0.202051 -0.013235 93.3806 -46.6673 -96.2134 33.8356 -6.21376 7.6287 -11.8146 -24.0672 -46.0342 -2.34761 -0.649898 5.34531 -95.5183 -48.9825 70.2325 -26.5974 13.3237 2.53037 4.58487 11.8892 -33.0316 9.85026 0.685562 2.87298 12.1832 1.6822 -0.399069 -2.37693 1.77848 2.05432 
37.6133 95.7877 -257.363 -87.7351 -83.4178 -87.466 -172.569 6.26734 86.862 -21.9769 13.7856 -3.01438 72.4098 13.0971 9.83268 27.0192 -1.35816 -0.298728 178.576 13.9438 92.5031 -37.8339 -6.46719 -3.43824 70.6495 -5.62885 -2.94019 40.732 0.316951 -6.98789 0.133723 7.39824 -89.8922 12.0771 0.316841 0.180346 0.406232 0.324459 0.166221 -22.129 0.247982 0.267234 -2.11639 0.247992 0.267235 93.4143 -47.3033 -96.0441 33.525 -5.93956 7.31341 -12.543 -24.5283 -46.5315 -6.56227 -0.911695 5.09063 -95.308 -48.6805 70.4526 -25.6083 15.7885 2.56845 4.62043 11.7485 -36.205 10.2223 0.91752 4.74554 11.9878 1.85425 -1.02236 -1.87364 2.1061 2.65417 
37.9265 95.7541 -255.332 -93.1042 -84.8121 -93.199 -172.717 3.83593 86.4897 -20.9364 14.8284 -2.98185 72.3877 13.3631 9.111 29.0003 0.0173227 1.57462 178.804 19.4444 92.4301 -43.4587 -5.86948 -3.35076 70.1066 -5.29588 -2.79626 42.0333 0.214651 -8.71912 -0.167103 7.60872 -89.8854 11.6569 -0.278603 0.257404 -0.0140571 -0.267003 0.269405 -22.5494 -0.343089 0.161769 -2.53674 -0.343086 0.161764 93.1708 -47.3379 -96.4266 33.4383 -5.96584 7.85385 -10.6313 -23.6024 -44.8909 -6.00315 -0.772289 3.71125 -95.9752 -49.0544 69.5761 -24.3745 16.9914 2.09202 5.13818 11.4881 -38.6117 9.08874 0.612077 2.63766 10.5594 2.37243 -0.736573 -1.34721 2.58015 3.44488 
38.1636 95.7231 -252.513 -90.1747 -85.8516 -89.3186 -172.318 1.28404 87.5887 -19.0514 15.2889 -2.83163 73.7667 14.5126 8.31557 28.4563 -0.354494 0.92287 177.944 23.0636 93.3043 -36.3439 -4.70786 -1.87963 68.29 -4.34049 -2.34779 40.8866 0.25975 -8.31715 -0.33998 7.71238 -90.0254 11.4497 -0.68826 0.018886 -0.221051 -0.686763 0.0491659 -22.7576 -0.662118 -0.188844 -2.74498 -0.662113 -0.18884 93.2422 -47.9913 -96.1926 32.7379 -6.00575 9.41516 -10.7009 -22.8206 -46.0851 -4.78858 -0.779177 5.19439 -95.8568 -48.4665 69.5673 -24.012 17.826 0.710929 6.27107 11.1395 -41.9711 8.91485 0.728538 3.83818 9.63077 1.85575 -1.45028 -1.53887 2.22017 3.91213 
38.2842 95.2329 -248.977 -90.7941 -85.8985 -89.5236 -171.862 -1.27647 87.8733 -18.6118 15.6466 -2.88466 75.1179 16.0953 9.36705 29.3825 0.484942 -0.101932 177.261 25.2443 93.7922 -25.7359 -6.0754 -0.621185 65.9078 -3.23572 -1.80712 39.7049 0.293351 -8.14562 -0.396374 7.87964 -90.0959 11.1143 -0.833453 -0.109675 -0.556425 -0.837466 -0.0728927 -23.0934 -0.761964 -0.355112 -3.08077 -0.761956 -0.35511 93.5524 -48.9195 -95.5435 32.0121 -5.43342 10.2665 -10.5169 -24.3777 -43.7377 -4.15237 -0.749083 5.05204 -96.0689 -47.7706 69.0256 -22.3399 18.7795 -1.55279 6.60561 10.603 -44.3056 10.5554 0.859761 4.02583 9.43593 1.82755 -2.21529 -0.704485 2.37425 4.12145 
38.0578 94.3112 -243.974 -83.8981 -86.7068 -82.8408 -171.925 -3.31377 88.1241 -20.4258 16.9197 -2.44088 75.5294 16.7992 10.1679 32.2993 2.79033 -0.298424 176.438 25.9939 93.7911 -16.181 -4.37172 0.610944 64.6536 -2.63654 -1.48706 38.5781 0.350033 -6.55793 -0.55851 7.96759 -90.1664 10.9379 -1.18886 -0.218408 -0.732476 -1.19733 -0.165872 -23.2712 -1.06826 -0.565644 -3.25853 -1.06826 -0.565665 93.0873 -48.8456 -96.2826 32.1251 -4.2063 11.6489 -11.4614 -24.6455 -43.0836 -2.62764 -0.665766 5.12135 -96.2854 -47.6936 68.6758 -20.289 19.3386 -4.46615 6.2327 10.8648 -43.986 11.3749 0.969823 4.40923 9.16234 2.1155 -1.40484 -0.219726 2.49211 3.58731 
